<svg width="15" height="8" viewBox="0 0 15 8" fill="none" xmlns="http://www.w3.org/2000/svg">
<path d="M7.51431 6.13832C6.61128 5.28237 5.75271 4.47189 4.89422 3.66149L4.89378 3.66108L2.23777 1.15385C1.90517 0.83988 1.44258 0.808808 1.1258 1.10784L1.1258 1.10784L1.12527 1.10835C0.971066 1.25609 0.892085 1.43931 0.900624 1.63162C0.90911 1.82273 1.00333 2.00965 1.17 2.16908L1.1704 2.16946C3.08732 3.98284 5.00425 5.79239 6.92524 7.60194C7.10022 7.76709 7.29857 7.8555 7.50403 7.85437C7.70932 7.85325 7.90724 7.76281 8.0818 7.59803L8.08403 7.59593C9.99609 5.79097 11.9082 3.98597 13.8203 2.17713L13.8207 2.17672C13.9789 2.02531 14.0761 1.85351 14.0962 1.67423C14.1164 1.49305 14.0562 1.31756 13.9249 1.16526C13.6909 0.891447 13.2767 0.816692 12.9586 1.00186C12.867 1.05386 12.7907 1.12591 12.728 1.1851L12.7245 1.18835C12.1576 1.72355 11.5901 2.25877 11.0225 2.79415C9.88667 3.86553 8.75014 4.93754 7.61547 6.01121L7.61543 6.01116L7.61291 6.01372C7.58076 6.04641 7.5537 6.08235 7.5284 6.11817C7.52353 6.12507 7.51886 6.13176 7.51431 6.13832Z" fill="#313134" stroke="#313134" stroke-width="0.2"/>
</svg>
